<svg version="1" xmlns="http://www.w3.org/2000/svg" width="400" height="400" viewBox="0 0 300.000000 300.000000"><path d="M0 150v150l90.8-.1 90.7-.1-9.1-2.1c-5-1.2-10.2-2.9-11.5-3.8-2.2-1.5-2.2-1.7-.7-5 .9-1.9 1.9-4.9 2.3-6.7.5-2.5 1.1-3.3 2.3-2.9 17.1 4.9 22.6 5.6 29.2 3.7 5.4-1.5 7.1-3.2 7.7-7.8.5-3.9.3-4.5-3-7.5-2.1-2.1-6.5-4.5-11.3-6.2-15-5.4-21.4-9.6-25.1-16.8-1.7-3.5-2.2-12-1-18 1-4.9 6.6-11.1 13.1-14.5 4.8-2.5 5.9-2.7 18.1-2.7 11.6 0 13.6.3 18.8 2.5 6.3 2.6 6.5 3.1 3.2 10.5-.7 1.6-1.6 3.8-1.9 4.9-.4 1.3-1.1 1.6-2.4 1.1-6.4-2.8-9.6-3.4-17-3.5-7.9 0-8.5.2-11.3 2.9-6.1 6.2-2.3 11.2 13.3 17.5 14.2 5.8 18.9 8.6 22.4 13.7 2.7 4 2.9 4.8 2.9 14.4 0 9.6-.2 10.4-2.9 14.3-3.7 5.4-8.4 8.2-17.6 10.3-7.4 1.7-7.1 1.7 46.3 1.8l53.7.1V0H0v150zm96 77c0 8.8.4 16 .9 16 .9 0 12.5-12.3 23.7-25.2l5.9-6.8h10.8c5.9 0 10.7.3 10.7.6 0 1-14.6 17.3-25.1 28-5.5 5.5-9.9 10.4-9.9 10.8 0 .3 3.6 4.1 7.9 8.4 4.3 4.2 10.7 11.3 14.1 15.6 6.3 8.1 16 22.1 16 23.1 0 .3-4.9.5-10.9.5h-10.8l-2.9-4.2c-8.8-13.1-27.5-33.5-29.4-32.3-.6.4-1 8.3-1 18.6V298H78v-87h18v16z"/></svg>